<svg width="8" height="13" viewBox="0 0 8 13" fill="none" xmlns="http://www.w3.org/2000/svg">
<path fill-rule="evenodd" clip-rule="evenodd" d="M3.6 0C3.83868 0 4.06764 0.0948241 4.23639 0.263601L6.93639 2.9636C7.28784 3.31508 7.28784 3.88492 6.93639 4.2364C6.58494 4.58787 6.01506 4.58787 5.66361 4.2364L3.6 2.17279L1.5364 4.2364C1.18492 4.58787 0.615078 4.58787 0.263601 4.2364C-0.087867 3.88492 -0.087867 3.31508 0.263601 2.9636L2.9636 0.263601C3.13239 0.0948241 3.3613 0 3.6 0ZM0.263601 8.36361C0.615078 8.01216 1.18492 8.01216 1.5364 8.36361L3.6 10.4272L5.66361 8.36361C6.01506 8.01216 6.58494 8.01216 6.93639 8.36361C7.28784 8.71506 7.28784 9.28494 6.93639 9.63639L4.23639 12.3364C3.88494 12.6878 3.31508 12.6878 2.9636 12.3364L0.263601 9.63639C-0.087867 9.28494 -0.087867 8.71506 0.263601 8.36361Z" fill="black"/>
</svg>
